{"glyphs":{"0":{"ha":694,"x_min":87,"x_max":608,"o":"m 260 87 l 260 0 l 434 0 l 434 87 l 260 87 m 260 87 l 260 174 l 174 174 l 174 87 l 260 87 m 434 87 l 521 87 l 521 174 l 434 174 l 434 87 m 174 174 l 174 260 l 260 260 l 260 347 l 174 347 l 174 694 l 87 694 l 87 174 l 174 174 m 521 174 l 608 174 l 608 694 l 521 694 l 521 608 l 434 608 l 434 521 l 347 521 l 347 434 l 260 434 l 260 347 l 347 347 l 347 434 l 434 434 l 434 521 l 521 521 l 521 174 m 174 694 l 260 694 l 260 781 l 174 781 l 174 694 m 521 694 l 521 781 l 434 781 l 434 694 l 521 694 m 260 781 l 434 781 l 434 868 l 260 868 l 260 781 z "},"1":{"ha":694,"x_min":174,"x_max":608,"o":"m 608 0 l 608 87 l 434 87 l 434 868 l 347 868 l 347 781 l 260 781 l 260 694 l 174 694 l 174 608 l 260 608 l 260 694 l 347 694 l 347 87 l 174 87 l 174 0 l 608 0 z "},"2":{"ha":694,"x_min":87,"x_max":608,"o":"m 608 0 l 608 87 l 174 87 l 174 260 l 87 260 l 87 0 l 608 0 m 174 260 l 260 260 l 260 347 l 174 347 l 174 260 m 260 347 l 347 347 l 347 434 l 260 434 l 260 347 m 347 434 l 521 434 l 521 521 l 347 521 l 347 434 m 521 521 l 608 521 l 608 781 l 521 781 l 521 521 m 87 781 l 87 608 l 174 608 l 174 781 l 87 781 m 174 781 l 521 781 l 521 868 l 174 868 l 174 781 z "},"3":{"ha":694,"x_min":87,"x_max":608,"o":"m 174 87 l 174 0 l 521 0 l 521 87 l 174 87 m 174 87 l 174 260 l 87 260 l 87 87 l 174 87 m 521 87 l 608 87 l 608 434 l 521 434 l 521 87 m 521 434 l 521 521 l 260 521 l 260 434 l 521 434 m 521 521 l 608 521 l 608 781 l 521 781 l 521 521 m 87 781 l 87 608 l 174 608 l 174 781 l 87 781 m 174 781 l 521 781 l 521 868 l 174 868 l 174 781 z "},"4":{"ha":694,"x_min":87,"x_max":608,"o":"m 608 260 l 608 347 l 521 347 l 521 868 l 434 868 l 434 781 l 347 781 l 347 694 l 260 694 l 260 608 l 174 608 l 174 521 l 87 521 l 87 260 l 434 260 l 434 0 l 521 0 l 521 260 l 608 260 m 174 347 l 174 521 l 260 521 l 260 608 l 347 608 l 347 694 l 434 694 l 434 347 l 174 347 z "},"5":{"ha":694,"x_min":87,"x_max":608,"o":"m 608 781 l 608 868 l 87 868 l 87 434 l 521 434 l 521 87 l 174 87 l 174 0 l 521 0 l 521 87 l 608 87 l 608 434 l 521 434 l 521 521 l 174 521 l 174 781 l 608 781 m 174 87 l 174 174 l 87 174 l 87 87 l 174 87 z "},"6":{"ha":694,"x_min":87,"x_max":608,"o":"m 521 781 l 521 868 l 260 868 l 260 781 l 174 781 l 174 694 l 87 694 l 87 87 l 174 87 l 174 0 l 521 0 l 521 87 l 174 87 l 174 434 l 521 434 l 521 87 l 608 87 l 608 434 l 521 434 l 521 521 l 174 521 l 174 694 l 260 694 l 260 781 l 521 781 z "},"7":{"ha":694,"x_min":87,"x_max":608,"o":"m 347 347 l 347 0 l 434 0 l 434 347 l 347 347 m 434 347 l 521 347 l 521 608 l 434 608 l 434 347 m 521 608 l 608 608 l 608 868 l 87 868 l 87 781 l 521 781 l 521 608 z "},"8":{"ha":694,"x_min":87,"x_max":608,"o":"m 174 87 l 174 0 l 521 0 l 521 87 l 174 87 m 174 87 l 174 434 l 87 434 l 87 87 l 174 87 m 521 87 l 608 87 l 608 434 l 521 434 l 521 87 m 174 434 l 521 434 l 521 521 l 174 521 l 174 434 m 174 521 l 174 781 l 87 781 l 87 521 l 174 521 m 521 521 l 608 521 l 608 781 l 521 781 l 521 521 m 174 781 l 521 781 l 521 868 l 174 868 l 174 781 z "},"9":{"ha":694,"x_min":87,"x_max":608,"o":"m 434 87 l 174 87 l 174 0 l 434 0 l 434 87 m 434 87 l 521 87 l 521 174 l 434 174 l 434 87 m 521 174 l 608 174 l 608 781 l 521 781 l 521 521 l 174 521 l 174 434 l 521 434 l 521 174 m 174 521 l 174 781 l 87 781 l 87 521 l 174 521 m 174 781 l 521 781 l 521 868 l 174 868 l 174 781 z "},"!":{"ha":694,"x_min":347,"x_max":434,"o":"m 347 174 l 347 0 l 434 0 l 434 174 l 347 174 m 347 868 l 347 260 l 434 260 l 434 868 l 347 868 z "},"\"":{"ha":694,"x_min":174,"x_max":608,"o":"m 174 1042 l 174 694 l 260 694 l 260 1042 l 174 1042 m 521 1042 l 521 694 l 608 694 l 608 1042 l 521 1042 z "},"#":{"ha":694,"x_min":87,"x_max":608,"o":"m 608 260 l 608 347 l 521 347 l 521 521 l 608 521 l 608 868 l 521 868 l 521 608 l 347 608 l 347 868 l 260 868 l 260 608 l 87 608 l 87 521 l 174 521 l 174 347 l 87 347 l 87 0 l 174 0 l 174 260 l 347 260 l 347 0 l 434 0 l 434 260 l 608 260 m 260 347 l 260 521 l 434 521 l 434 347 l 260 347 z "},"$":{"ha":694,"x_min":87,"x_max":694,"o":"m 694 608 l 694 694 l 608 694 l 608 608 l 694 608 m 434 87 l 608 87 l 608 174 l 434 174 l 434 347 l 608 347 l 608 174 l 694 174 l 694 347 l 608 347 l 608 434 l 434 434 l 434 694 l 608 694 l 608 781 l 434 781 l 434 868 l 347 868 l 347 781 l 174 781 l 174 694 l 87 694 l 87 521 l 174 521 l 174 434 l 347 434 l 347 174 l 174 174 l 174 87 l 347 87 l 347 0 l 434 0 l 434 87 m 174 174 l 174 260 l 87 260 l 87 174 l 174 174 m 174 521 l 174 694 l 347 694 l 347 521 l 174 521 z "},"%":{"ha":694,"x_min":87,"x_max":694,"o":"m 694 781 l 694 868 l 608 868 l 608 781 l 521 781 l 521 608 l 434 608 l 434 521 l 347 521 l 347 347 l 260 347 l 260 260 l 174 260 l 174 87 l 87 87 l 87 0 l 174 0 l 174 87 l 260 87 l 260 260 l 347 260 l 347 87 l 434 87 l 434 0 l 608 0 l 608 87 l 434 87 l 434 260 l 347 260 l 347 347 l 434 347 l 434 260 l 608 260 l 608 87 l 694 87 l 694 260 l 608 260 l 608 347 l 434 347 l 434 521 l 521 521 l 521 608 l 608 608 l 608 781 l 694 781 m 347 521 l 347 608 l 174 608 l 174 521 l 347 521 m 174 608 l 174 781 l 87 781 l 87 608 l 174 608 m 347 608 l 434 608 l 434 781 l 347 781 l 347 608 m 174 781 l 347 781 l 347 868 l 174 868 l 174 781 z "},"&":{"ha":694,"x_min":87,"x_max":694,"o":"m 694 0 l 694 87 l 608 87 l 608 0 l 694 0 m 174 87 l 174 0 l 434 0 l 434 87 l 174 87 m 174 87 l 174 347 l 87 347 l 87 87 l 174 87 m 434 87 l 608 87 l 608 260 l 521 260 l 521 174 l 434 174 l 434 87 m 521 260 l 521 347 l 434 347 l 434 260 l 521 260 m 608 260 l 694 260 l 694 434 l 608 434 l 608 260 m 174 347 l 260 347 l 260 434 l 174 434 l 174 347 m 434 347 l 434 521 l 347 521 l 347 608 l 260 608 l 260 434 l 347 434 l 347 347 l 434 347 m 434 521 l 521 521 l 521 608 l 434 608 l 434 521 m 260 608 l 260 781 l 174 781 l 174 608 l 260 608 m 521 608 l 608 608 l 608 781 l 521 781 l 521 608 m 260 781 l 521 781 l 521 868 l 260 868 l 260 781 z "},"'":{"ha":694,"x_min":347,"x_max":434,"o":"m 347 1042 l 347 694 l 434 694 l 434 1042 l 347 1042 z "},"(":{"ha":694,"x_min":260,"x_max":521,"o":"m 521 -87 l 521 0 l 434 0 l 434 -87 l 521 -87 m 521 868 l 521 955 l 434 955 l 434 868 l 347 868 l 347 694 l 260 694 l 260 174 l 347 174 l 347 0 l 434 0 l 434 174 l 347 174 l 347 694 l 434 694 l 434 868 l 521 868 z "},")":{"ha":694,"x_min":174,"x_max":434,"o":"m 260 0 l 174 0 l 174 -87 l 260 -87 l 260 0 m 260 0 l 347 0 l 347 174 l 260 174 l 260 0 m 347 174 l 434 174 l 434 694 l 347 694 l 347 174 m 347 694 l 347 868 l 260 868 l 260 694 l 347 694 m 260 868 l 260 955 l 174 955 l 174 868 l 260 868 z "},"*":{"ha":694,"x_min":87,"x_max":694,"o":"m 694 174 l 694 260 l 608 260 l 608 174 l 694 174 m 694 521 l 694 608 l 608 608 l 608 521 l 521 521 l 521 434 l 434 434 l 434 694 l 347 694 l 347 434 l 260 434 l 260 347 l 174 347 l 174 260 l 87 260 l 87 174 l 174 174 l 174 260 l 260 260 l 260 347 l 347 347 l 347 87 l 434 87 l 434 347 l 521 347 l 521 260 l 608 260 l 608 347 l 521 347 l 521 434 l 608 434 l 608 521 l 694 521 m 260 434 l 260 521 l 174 521 l 174 434 l 260 434 m 174 521 l 174 608 l 87 608 l 87 521 l 174 521 z "},"+":{"ha":694,"x_min":87,"x_max":694,"o":"m 694 347 l 694 434 l 434 434 l 434 694 l 347 694 l 347 434 l 87 434 l 87 347 l 347 347 l 347 87 l 434 87 l 434 347 l 694 347 z "},",":{"ha":694,"x_min":260,"x_max":434,"o":"m 347 -87 l 260 -87 l 260 -174 l 347 -174 l 347 -87 m 347 -87 l 434 -87 l 434 174 l 260 174 l 260 87 l 347 87 l 347 -87 z "},"-":{"ha":694,"x_min":174,"x_max":521,"o":"m 521 347 l 521 434 l 174 434 l 174 347 l 521 347 z "},".":{"ha":694,"x_min":260,"x_max":434,"o":"m 260 174 l 260 0 l 434 0 l 434 174 l 260 174 z "},"/":{"ha":694,"x_min":87,"x_max":608,"o":"m 87 174 l 87 0 l 174 0 l 174 174 l 87 174 m 174 174 l 260 174 l 260 260 l 174 260 l 174 174 m 260 260 l 347 260 l 347 434 l 260 434 l 260 260 m 347 434 l 434 434 l 434 608 l 347 608 l 347 434 m 434 608 l 521 608 l 521 694 l 434 694 l 434 608 m 521 694 l 608 694 l 608 868 l 521 868 l 521 694 z "},":":{"ha":694,"x_min":260,"x_max":434,"o":"m 260 260 l 260 87 l 434 87 l 434 260 l 260 260 m 260 694 l 260 521 l 434 521 l 434 694 l 260 694 z "},";":{"ha":694,"x_min":260,"x_max":434,"o":"m 347 0 l 260 0 l 260 -87 l 347 -87 l 347 0 m 347 0 l 434 0 l 434 260 l 260 260 l 260 174 l 347 174 l 347 0 m 260 694 l 260 521 l 434 521 l 434 694 l 260 694 z "},"<":{"ha":694,"x_min":174,"x_max":608,"o":"m 608 0 l 608 87 l 521 87 l 521 0 l 608 0 m 608 694 l 608 781 l 521 781 l 521 694 l 434 694 l 434 608 l 347 608 l 347 521 l 260 521 l 260 434 l 174 434 l 174 347 l 260 347 l 260 260 l 347 260 l 347 174 l 434 174 l 434 87 l 521 87 l 521 174 l 434 174 l 434 260 l 347 260 l 347 347 l 260 347 l 260 434 l 347 434 l 347 521 l 434 521 l 434 608 l 521 608 l 521 694 l 608 694 z "},"=":{"ha":694,"x_min":87,"x_max":608,"o":"m 608 174 l 608 260 l 87 260 l 87 174 l 608 174 m 608 521 l 608 608 l 87 608 l 87 521 l 608 521 z "},">":{"ha":694,"x_min":87,"x_max":521,"o":"m 521 347 l 521 434 l 434 434 l 434 347 l 347 347 l 347 260 l 260 260 l 260 174 l 174 174 l 174 87 l 87 87 l 87 0 l 174 0 l 174 87 l 260 87 l 260 174 l 347 174 l 347 260 l 434 260 l 434 347 l 521 347 m 434 434 l 434 521 l 347 521 l 347 434 l 434 434 m 347 521 l 347 608 l 260 608 l 260 521 l 347 521 m 260 608 l 260 694 l 174 694 l 174 608 l 260 608 m 174 694 l 174 781 l 87 781 l 87 694 l 174 694 z "},"?":{"ha":694,"x_min":87,"x_max":608,"o":"m 347 174 l 347 0 l 434 0 l 434 174 l 347 174 m 347 434 l 347 260 l 434 260 l 434 434 l 347 434 m 434 434 l 521 434 l 521 521 l 434 521 l 434 434 m 521 521 l 608 521 l 608 781 l 521 781 l 521 521 m 87 781 l 87 608 l 174 608 l 174 781 l 87 781 m 174 781 l 521 781 l 521 868 l 174 868 l 174 781 z "},"@":{"ha":694,"x_min":87,"x_max":608,"o":"m 608 0 l 608 87 l 260 87 l 260 0 l 608 0 m 260 87 l 260 174 l 174 174 l 174 87 l 260 87 m 174 174 l 174 694 l 87 694 l 87 174 l 174 174 m 347 260 l 347 174 l 608 174 l 608 781 l 521 781 l 521 608 l 434 608 l 434 521 l 521 521 l 521 260 l 347 260 m 347 260 l 347 608 l 260 608 l 260 260 l 347 260 m 347 608 l 434 608 l 434 694 l 347 694 l 347 608 m 174 694 l 260 694 l 260 781 l 174 781 l 174 694 m 260 781 l 521 781 l 521 868 l 260 868 l 260 781 z "},"A":{"ha":694,"x_min":87,"x_max":608,"o":"m 87 608 l 87 0 l 174 0 l 174 347 l 521 347 l 521 0 l 608 0 l 608 608 l 521 608 l 521 434 l 174 434 l 174 608 l 87 608 m 174 608 l 260 608 l 260 781 l 174 781 l 174 608 m 521 608 l 521 781 l 434 781 l 434 608 l 521 608 m 260 781 l 434 781 l 434 868 l 260 868 l 260 781 z "},"B":{"ha":694,"x_min":87,"x_max":608,"o":"m 87 868 l 87 0 l 521 0 l 521 87 l 174 87 l 174 434 l 521 434 l 521 87 l 608 87 l 608 434 l 521 434 l 521 521 l 174 521 l 174 781 l 521 781 l 521 521 l 608 521 l 608 781 l 521 781 l 521 868 l 87 868 z "},"C":{"ha":694,"x_min":87,"x_max":608,"o":"m 174 87 l 174 0 l 521 0 l 521 87 l 174 87 m 174 87 l 174 781 l 87 781 l 87 87 l 174 87 m 521 87 l 608 87 l 608 260 l 521 260 l 521 87 m 521 781 l 521 608 l 608 608 l 608 781 l 521 781 m 174 781 l 521 781 l 521 868 l 174 868 l 174 781 z "},"D":{"ha":694,"x_min":87,"x_max":608,"o":"m 87 868 l 87 0 l 434 0 l 434 87 l 174 87 l 174 781 l 434 781 l 434 694 l 521 694 l 521 174 l 434 174 l 434 87 l 521 87 l 521 174 l 608 174 l 608 694 l 521 694 l 521 781 l 434 781 l 434 868 l 87 868 z "},"E":{"ha":694,"x_min":87,"x_max":608,"o":"m 608 0 l 608 87 l 174 87 l 174 434 l 521 434 l 521 521 l 174 521 l 174 781 l 608 781 l 608 868 l 87 868 l 87 0 l 608 0 z "},"F":{"ha":694,"x_min":87,"x_max":608,"o":"m 521 434 l 521 521 l 174 521 l 174 781 l 608 781 l 608 868 l 87 868 l 87 0 l 174 0 l 174 434 l 521 434 z "},"G":{"ha":694,"x_min":87,"x_max":608,"o":"m 174 87 l 174 0 l 434 0 l 434 87 l 174 87 m 174 87 l 174 781 l 87 781 l 87 87 l 174 87 m 521 87 l 521 0 l 608 0 l 608 434 l 347 434 l 347 347 l 521 347 l 521 174 l 434 174 l 434 87 l 521 87 m 521 781 l 521 608 l 608 608 l 608 781 l 521 781 m 174 781 l 521 781 l 521 868 l 174 868 l 174 781 z "},"H":{"ha":694,"x_min":87,"x_max":608,"o":"m 87 868 l 87 0 l 174 0 l 174 434 l 521 434 l 521 0 l 608 0 l 608 868 l 521 868 l 521 521 l 174 521 l 174 868 l 87 868 z "},"I":{"ha":694,"x_min":174,"x_max":608,"o":"m 608 0 l 608 87 l 434 87 l 434 781 l 608 781 l 608 868 l 174 868 l 174 781 l 347 781 l 347 87 l 174 87 l 174 0 l 608 0 z "},"J":{"ha":694,"x_min":87,"x_max":694,"o":"m 694 781 l 694 868 l 260 868 l 260 781 l 434 781 l 434 87 l 174 87 l 174 0 l 434 0 l 434 87 l 521 87 l 521 781 l 694 781 m 174 87 l 174 260 l 87 260 l 87 87 l 174 87 z "},"K":{"ha":694,"x_min":87,"x_max":608,"o":"m 608 0 l 608 87 l 521 87 l 521 0 l 608 0 m 608 781 l 608 868 l 521 868 l 521 781 l 434 781 l 434 694 l 347 694 l 347 608 l 260 608 l 260 521 l 174 521 l 174 868 l 87 868 l 87 0 l 174 0 l 174 347 l 260 347 l 260 260 l 347 260 l 347 174 l 434 174 l 434 87 l 521 87 l 521 174 l 434 174 l 434 260 l 347 260 l 347 347 l 260 347 l 260 521 l 347 521 l 347 608 l 434 608 l 434 694 l 521 694 l 521 781 l 608 781 z "},"L":{"ha":694,"x_min":87,"x_max":608,"o":"m 608 0 l 608 87 l 174 87 l 174 868 l 87 868 l 87 0 l 608 0 z "},"M":{"ha":694,"x_min":87,"x_max":608,"o":"m 87 868 l 87 0 l 174 0 l 174 521 l 260 521 l 260 347 l 434 347 l 434 521 l 260 521 l 260 694 l 174 694 l 174 868 l 87 868 m 521 521 l 521 0 l 608 0 l 608 868 l 521 868 l 521 694 l 434 694 l 434 521 l 521 521 z "},"N":{"ha":694,"x_min":87,"x_max":608,"o":"m 87 868 l 87 0 l 174 0 l 174 608 l 260 608 l 260 434 l 347 434 l 347 260 l 434 260 l 434 87 l 521 87 l 521 0 l 608 0 l 608 868 l 521 868 l 521 260 l 434 260 l 434 434 l 347 434 l 347 608 l 260 608 l 260 781 l 174 781 l 174 868 l 87 868 z "},"O":{"ha":694,"x_min":87,"x_max":608,"o":"m 174 87 l 174 0 l 521 0 l 521 87 l 174 87 m 174 87 l 174 781 l 87 781 l 87 87 l 174 87 m 521 87 l 608 87 l 608 781 l 521 781 l 521 87 m 174 781 l 521 781 l 521 868 l 174 868 l 174 781 z "},"P":{"ha":694,"x_min":87,"x_max":608,"o":"m 87 868 l 87 0 l 174 0 l 174 434 l 521 434 l 521 521 l 174 521 l 174 781 l 521 781 l 521 521 l 608 521 l 608 781 l 521 781 l 521 868 l 87 868 z "},"Q":{"ha":694,"x_min":87,"x_max":694,"o":"m 694 -87 l 694 0 l 521 0 l 521 -87 l 694 -87 m 521 0 l 521 87 l 608 87 l 608 781 l 521 781 l 521 174 l 434 174 l 434 87 l 260 87 l 260 174 l 174 174 l 174 781 l 87 781 l 87 87 l 174 87 l 174 0 l 521 0 m 260 174 l 434 174 l 434 260 l 260 260 l 260 174 m 174 781 l 521 781 l 521 868 l 174 868 l 174 781 z "},"R":{"ha":694,"x_min":87,"x_max":608,"o":"m 87 868 l 87 0 l 174 0 l 174 434 l 347 434 l 347 347 l 434 347 l 434 174 l 521 174 l 521 0 l 608 0 l 608 174 l 521 174 l 521 347 l 434 347 l 434 434 l 521 434 l 521 521 l 174 521 l 174 781 l 521 781 l 521 521 l 608 521 l 608 781 l 521 781 l 521 868 l 87 868 z "},"S":{"ha":694,"x_min":87,"x_max":608,"o":"m 174 87 l 174 0 l 521 0 l 521 87 l 174 87 m 174 87 l 174 260 l 87 260 l 87 87 l 174 87 m 521 87 l 608 87 l 608 347 l 521 347 l 521 87 m 521 347 l 521 434 l 347 434 l 347 347 l 521 347 m 347 434 l 347 521 l 174 521 l 174 434 l 347 434 m 174 521 l 174 781 l 87 781 l 87 521 l 174 521 m 521 781 l 521 608 l 608 608 l 608 781 l 521 781 m 174 781 l 521 781 l 521 868 l 174 868 l 174 781 z "},"T":{"ha":694,"x_min":87,"x_max":694,"o":"m 694 781 l 694 868 l 87 868 l 87 781 l 347 781 l 347 0 l 434 0 l 434 781 l 694 781 z "},"U":{"ha":694,"x_min":87,"x_max":608,"o":"m 174 87 l 174 0 l 521 0 l 521 87 l 174 87 m 174 87 l 174 868 l 87 868 l 87 87 l 174 87 m 521 87 l 608 87 l 608 868 l 521 868 l 521 87 z "},"V":{"ha":694,"x_min":87,"x_max":694,"o":"m 347 174 l 347 0 l 434 0 l 434 174 l 347 174 m 347 174 l 347 347 l 260 347 l 260 174 l 347 174 m 434 174 l 521 174 l 521 347 l 434 347 l 434 174 m 260 347 l 260 608 l 174 608 l 174 347 l 260 347 m 521 347 l 608 347 l 608 608 l 521 608 l 521 347 m 174 608 l 174 868 l 87 868 l 87 608 l 174 608 m 608 608 l 694 608 l 694 868 l 608 868 l 608 608 z "},"W":{"ha":694,"x_min":87,"x_max":608,"o":"m 87 868 l 87 0 l 174 0 l 174 174 l 260 174 l 260 347 l 174 347 l 174 868 l 87 868 m 521 174 l 521 0 l 608 0 l 608 868 l 521 868 l 521 347 l 434 347 l 434 174 l 521 174 m 260 347 l 434 347 l 434 521 l 260 521 l 260 347 z "},"X":{"ha":694,"x_min":87,"x_max":608,"o":"m 87 174 l 87 0 l 174 0 l 174 174 l 87 174 m 521 174 l 521 0 l 608 0 l 608 174 l 521 174 m 174 174 l 260 174 l 260 347 l 174 347 l 174 174 m 521 174 l 521 347 l 434 347 l 434 174 l 521 174 m 260 347 l 434 347 l 434 521 l 260 521 l 260 347 m 260 521 l 260 694 l 174 694 l 174 521 l 260 521 m 434 521 l 521 521 l 521 694 l 434 694 l 434 521 m 174 694 l 174 868 l 87 868 l 87 694 l 174 694 m 521 694 l 608 694 l 608 868 l 521 868 l 521 694 z "},"Y":{"ha":694,"x_min":87,"x_max":694,"o":"m 347 434 l 347 0 l 434 0 l 434 434 l 347 434 m 347 434 l 347 521 l 260 521 l 260 434 l 347 434 m 434 434 l 521 434 l 521 521 l 434 521 l 434 434 m 260 521 l 260 694 l 174 694 l 174 521 l 260 521 m 521 521 l 608 521 l 608 694 l 521 694 l 521 521 m 174 694 l 174 868 l 87 868 l 87 694 l 174 694 m 608 694 l 694 694 l 694 868 l 608 868 l 608 694 z "},"Z":{"ha":694,"x_min":87,"x_max":608,"o":"m 608 0 l 608 87 l 174 87 l 174 260 l 87 260 l 87 0 l 608 0 m 174 260 l 260 260 l 260 347 l 174 347 l 174 260 m 260 347 l 347 347 l 347 434 l 260 434 l 260 347 m 347 434 l 434 434 l 434 521 l 347 521 l 347 434 m 434 521 l 521 521 l 521 608 l 434 608 l 434 521 m 521 608 l 608 608 l 608 868 l 87 868 l 87 781 l 521 781 l 521 608 z "},"[":{"ha":694,"x_min":347,"x_max":608,"o":"m 608 -87 l 608 0 l 434 0 l 434 868 l 608 868 l 608 955 l 347 955 l 347 -87 l 608 -87 z "},"\\":{"ha":694,"x_min":87,"x_max":608,"o":"m 521 174 l 521 0 l 608 0 l 608 174 l 521 174 m 521 174 l 521 260 l 434 260 l 434 174 l 521 174 m 434 260 l 434 434 l 347 434 l 347 260 l 434 260 m 347 434 l 347 608 l 260 608 l 260 434 l 347 434 m 260 608 l 260 694 l 174 694 l 174 608 l 260 608 m 174 694 l 174 868 l 87 868 l 87 694 l 174 694 z "},"]":{"ha":694,"x_min":87,"x_max":347,"o":"m 260 0 l 87 0 l 87 -87 l 347 -87 l 347 955 l 87 955 l 87 868 l 260 868 l 260 0 z "},"^":{"ha":694,"x_min":87,"x_max":608,"o":"m 608 781 l 608 868 l 521 868 l 521 781 l 608 781 m 174 868 l 87 868 l 87 781 l 174 781 l 174 868 m 174 868 l 260 868 l 260 955 l 174 955 l 174 868 m 521 868 l 521 955 l 434 955 l 434 868 l 521 868 m 260 955 l 434 955 l 434 1042 l 260 1042 l 260 955 z "},"_":{"ha":694,"x_min":87,"x_max":694,"o":"m 694 -87 l 694 0 l 87 0 l 87 -87 l 694 -87 z "},"`":{"ha":694,"x_min":174,"x_max":434,"o":"m 434 868 l 434 955 l 347 955 l 347 868 l 434 868 m 347 955 l 347 1042 l 260 1042 l 260 955 l 347 955 m 260 1042 l 260 1128 l 174 1128 l 174 1042 l 260 1042 z "},"a":{"ha":694,"x_min":87,"x_max":608,"o":"m 174 87 l 174 0 l 434 0 l 434 87 l 174 87 m 174 87 l 174 347 l 87 347 l 87 87 l 174 87 m 521 87 l 521 0 l 608 0 l 608 608 l 521 608 l 521 434 l 174 434 l 174 347 l 521 347 l 521 174 l 434 174 l 434 87 l 521 87 m 174 608 l 87 608 l 87 521 l 174 521 l 174 608 m 174 608 l 521 608 l 521 694 l 174 694 l 174 608 z "},"b":{"ha":694,"x_min":87,"x_max":608,"o":"m 174 87 l 260 87 l 260 0 l 521 0 l 521 87 l 260 87 l 260 174 l 174 174 l 174 521 l 260 521 l 260 608 l 174 608 l 174 955 l 87 955 l 87 0 l 174 0 l 174 87 m 521 87 l 608 87 l 608 608 l 521 608 l 521 87 m 260 608 l 521 608 l 521 694 l 260 694 l 260 608 z "},"c":{"ha":694,"x_min":87,"x_max":608,"o":"m 608 87 l 608 174 l 521 174 l 521 87 l 174 87 l 174 0 l 521 0 l 521 87 l 608 87 m 608 521 l 608 608 l 521 608 l 521 521 l 608 521 m 174 87 l 174 608 l 87 608 l 87 87 l 174 87 m 174 608 l 521 608 l 521 694 l 174 694 l 174 608 z "},"d":{"ha":694,"x_min":87,"x_max":608,"o":"m 174 87 l 174 0 l 434 0 l 434 87 l 174 87 m 174 87 l 174 608 l 87 608 l 87 87 l 174 87 m 521 87 l 521 0 l 608 0 l 608 955 l 521 955 l 521 608 l 434 608 l 434 521 l 521 521 l 521 174 l 434 174 l 434 87 l 521 87 m 174 608 l 434 608 l 434 694 l 174 694 l 174 608 z "},"e":{"ha":694,"x_min":87,"x_max":608,"o":"m 608 87 l 608 174 l 521 174 l 521 87 l 174 87 l 174 0 l 521 0 l 521 87 l 608 87 m 174 87 l 174 347 l 608 347 l 608 608 l 521 608 l 521 434 l 174 434 l 174 608 l 87 608 l 87 87 l 174 87 m 174 608 l 521 608 l 521 694 l 174 694 l 174 608 z "},"f":{"ha":694,"x_min":87,"x_max":521,"o":"m 521 521 l 521 608 l 347 608 l 347 868 l 260 868 l 260 608 l 87 608 l 87 521 l 260 521 l 260 0 l 347 0 l 347 521 l 521 521 m 521 868 l 521 955 l 347 955 l 347 868 l 521 868 z "},"g":{"ha":694,"x_min":87,"x_max":608,"o":"m 174 -87 l 174 -174 l 521 -174 l 521 -87 l 174 -87 m 174 -87 l 174 87 l 87 87 l 87 -87 l 174 -87 m 521 -87 l 608 -87 l 608 87 l 521 87 l 521 -87 m 174 87 l 521 87 l 521 174 l 260 174 l 260 260 l 434 260 l 434 347 l 174 347 l 174 87 m 174 347 l 174 608 l 87 608 l 87 347 l 174 347 m 434 347 l 521 347 l 521 608 l 434 608 l 434 347 m 174 608 l 434 608 l 434 694 l 174 694 l 174 608 m 521 608 l 608 608 l 608 781 l 521 781 l 521 608 z "},"h":{"ha":694,"x_min":87,"x_max":608,"o":"m 87 955 l 87 0 l 174 0 l 174 521 l 260 521 l 260 608 l 174 608 l 174 955 l 87 955 m 521 608 l 521 0 l 608 0 l 608 608 l 521 608 m 260 608 l 521 608 l 521 694 l 260 694 l 260 608 z "},"i":{"ha":694,"x_min":174,"x_max":608,"o":"m 608 0 l 608 87 l 434 87 l 434 694 l 260 694 l 260 608 l 347 608 l 347 87 l 174 87 l 174 0 l 608 0 m 347 955 l 347 781 l 434 781 l 434 955 l 347 955 z "},"j":{"ha":694,"x_min":87,"x_max":521,"o":"m 174 -87 l 174 -174 l 347 -174 l 347 -87 l 174 -87 m 174 -87 l 174 0 l 87 0 l 87 -87 l 174 -87 m 347 -87 l 434 -87 l 434 0 l 347 0 l 347 -87 m 434 0 l 521 0 l 521 694 l 347 694 l 347 608 l 434 608 l 434 0 m 434 955 l 434 781 l 521 781 l 521 955 l 434 955 z "},"k":{"ha":694,"x_min":87,"x_max":608,"o":"m 608 0 l 608 87 l 521 87 l 521 0 l 608 0 m 521 608 l 521 694 l 434 694 l 434 608 l 347 608 l 347 521 l 260 521 l 260 434 l 174 434 l 174 955 l 87 955 l 87 0 l 174 0 l 174 347 l 260 347 l 260 260 l 347 260 l 347 174 l 434 174 l 434 87 l 521 87 l 521 174 l 434 174 l 434 260 l 347 260 l 347 347 l 260 347 l 260 434 l 347 434 l 347 521 l 434 521 l 434 608 l 521 608 z "},"l":{"ha":694,"x_min":174,"x_max":608,"o":"m 608 0 l 608 87 l 434 87 l 434 955 l 260 955 l 260 868 l 347 868 l 347 87 l 174 87 l 174 0 l 608 0 z "},"m":{"ha":694,"x_min":87,"x_max":694,"o":"m 87 694 l 87 0 l 174 0 l 174 608 l 347 608 l 347 0 l 434 0 l 434 608 l 347 608 l 347 694 l 87 694 m 608 608 l 608 0 l 694 0 l 694 608 l 608 608 m 434 608 l 608 608 l 608 694 l 434 694 l 434 608 z "},"n":{"ha":694,"x_min":87,"x_max":608,"o":"m 87 694 l 87 0 l 174 0 l 174 521 l 260 521 l 260 608 l 174 608 l 174 694 l 87 694 m 521 608 l 521 0 l 608 0 l 608 608 l 521 608 m 260 608 l 521 608 l 521 694 l 260 694 l 260 608 z "},"o":{"ha":694,"x_min":87,"x_max":608,"o":"m 174 87 l 174 0 l 521 0 l 521 87 l 174 87 m 174 87 l 174 608 l 87 608 l 87 87 l 174 87 m 521 87 l 608 87 l 608 608 l 521 608 l 521 87 m 174 608 l 521 608 l 521 694 l 174 694 l 174 608 z "},"p":{"ha":694,"x_min":87,"x_max":608,"o":"m 87 694 l 87 -174 l 174 -174 l 174 87 l 260 87 l 260 0 l 521 0 l 521 87 l 260 87 l 260 174 l 174 174 l 174 521 l 260 521 l 260 608 l 174 608 l 174 694 l 87 694 m 521 87 l 608 87 l 608 608 l 521 608 l 521 87 m 260 608 l 521 608 l 521 694 l 260 694 l 260 608 z "},"q":{"ha":694,"x_min":87,"x_max":608,"o":"m 521 87 l 521 -174 l 608 -174 l 608 694 l 521 694 l 521 608 l 434 608 l 434 521 l 521 521 l 521 174 l 434 174 l 434 87 l 174 87 l 174 0 l 434 0 l 434 87 l 521 87 m 174 87 l 174 608 l 87 608 l 87 87 l 174 87 m 174 608 l 434 608 l 434 694 l 174 694 l 174 608 z "},"r":{"ha":694,"x_min":87,"x_max":608,"o":"m 87 694 l 87 0 l 174 0 l 174 521 l 260 521 l 260 608 l 174 608 l 174 694 l 87 694 m 521 608 l 521 434 l 608 434 l 608 608 l 521 608 m 260 608 l 521 608 l 521 694 l 260 694 l 260 608 z "},"s":{"ha":694,"x_min":87,"x_max":608,"o":"m 608 521 l 608 608 l 521 608 l 521 521 l 608 521 m 174 87 l 174 0 l 521 0 l 521 87 l 174 87 m 174 87 l 174 174 l 87 174 l 87 87 l 174 87 m 521 87 l 608 87 l 608 260 l 521 260 l 521 87 m 521 260 l 521 347 l 347 347 l 347 260 l 521 260 m 347 347 l 347 434 l 174 434 l 174 347 l 347 347 m 174 434 l 174 608 l 87 608 l 87 434 l 174 434 m 174 608 l 521 608 l 521 694 l 174 694 l 174 608 z "},"t":{"ha":694,"x_min":87,"x_max":521,"o":"m 521 0 l 521 87 l 347 87 l 347 0 l 521 0 m 521 521 l 521 608 l 347 608 l 347 868 l 260 868 l 260 608 l 87 608 l 87 521 l 260 521 l 260 87 l 347 87 l 347 521 l 521 521 z "},"u":{"ha":694,"x_min":87,"x_max":608,"o":"m 174 87 l 174 0 l 434 0 l 434 87 l 174 87 m 174 87 l 174 694 l 87 694 l 87 87 l 174 87 m 521 87 l 521 0 l 608 0 l 608 694 l 521 694 l 521 174 l 434 174 l 434 87 l 521 87 z "},"v":{"ha":694,"x_min":87,"x_max":608,"o":"m 260 174 l 260 0 l 434 0 l 434 174 l 260 174 m 260 174 l 260 434 l 174 434 l 174 174 l 260 174 m 434 174 l 521 174 l 521 434 l 434 434 l 434 174 m 174 434 l 174 694 l 87 694 l 87 434 l 174 434 m 521 434 l 608 434 l 608 694 l 521 694 l 521 434 z "},"w":{"ha":694,"x_min":87,"x_max":694,"o":"m 174 87 l 174 0 l 347 0 l 347 87 l 174 87 m 174 87 l 174 694 l 87 694 l 87 87 l 174 87 m 347 87 l 434 87 l 434 0 l 608 0 l 608 87 l 434 87 l 434 608 l 347 608 l 347 87 m 608 87 l 694 87 l 694 694 l 608 694 l 608 87 z "},"x":{"ha":694,"x_min":87,"x_max":608,"o":"m 87 174 l 87 0 l 174 0 l 174 174 l 87 174 m 521 174 l 521 0 l 608 0 l 608 174 l 521 174 m 174 174 l 260 174 l 260 260 l 174 260 l 174 174 m 521 174 l 521 260 l 434 260 l 434 174 l 521 174 m 260 260 l 434 260 l 434 434 l 260 434 l 260 260 m 260 434 l 260 521 l 174 521 l 174 434 l 260 434 m 434 434 l 521 434 l 521 521 l 434 521 l 434 434 m 174 521 l 174 694 l 87 694 l 87 521 l 174 521 m 521 521 l 608 521 l 608 694 l 521 694 l 521 521 z "},"y":{"ha":694,"x_min":87,"x_max":608,"o":"m 521 -87 l 174 -87 l 174 -174 l 521 -174 l 521 -87 m 521 -87 l 608 -87 l 608 694 l 521 694 l 521 260 l 434 260 l 434 174 l 260 174 l 260 87 l 434 87 l 434 174 l 521 174 l 521 -87 m 260 174 l 260 260 l 174 260 l 174 174 l 260 174 m 174 260 l 174 694 l 87 694 l 87 260 l 174 260 z "},"z":{"ha":694,"x_min":87,"x_max":608,"o":"m 608 0 l 608 87 l 174 87 l 174 174 l 87 174 l 87 0 l 608 0 m 174 174 l 260 174 l 260 260 l 174 260 l 174 174 m 260 260 l 347 260 l 347 347 l 260 347 l 260 260 m 347 347 l 434 347 l 434 434 l 347 434 l 347 347 m 434 434 l 521 434 l 521 521 l 434 521 l 434 434 m 521 521 l 608 521 l 608 694 l 87 694 l 87 608 l 521 608 l 521 521 z "},"{":{"ha":694,"x_min":174,"x_max":521,"o":"m 521 -174 l 521 -87 l 347 -87 l 347 -174 l 521 -174 m 521 868 l 521 955 l 347 955 l 347 868 l 260 868 l 260 694 l 347 694 l 347 521 l 260 521 l 260 434 l 174 434 l 174 347 l 260 347 l 260 260 l 347 260 l 347 87 l 260 87 l 260 -87 l 347 -87 l 347 87 l 434 87 l 434 260 l 347 260 l 347 347 l 260 347 l 260 434 l 347 434 l 347 521 l 434 521 l 434 694 l 347 694 l 347 868 l 521 868 z "},"|":{"ha":694,"x_min":347,"x_max":434,"o":"m 347 1042 l 347 -174 l 434 -174 l 434 1042 l 347 1042 z "},"}":{"ha":694,"x_min":174,"x_max":521,"o":"m 521 347 l 521 434 l 434 434 l 434 347 l 347 347 l 347 260 l 260 260 l 260 87 l 347 87 l 347 -87 l 174 -87 l 174 -174 l 347 -174 l 347 -87 l 434 -87 l 434 87 l 347 87 l 347 260 l 434 260 l 434 347 l 521 347 m 434 434 l 434 521 l 347 521 l 347 434 l 434 434 m 347 521 l 347 694 l 260 694 l 260 521 l 347 521 m 347 694 l 434 694 l 434 868 l 347 868 l 347 694 m 347 868 l 347 955 l 174 955 l 174 868 l 347 868 z "},"~":{"ha":694,"x_min":87,"x_max":694,"o":"m 87 868 l 87 694 l 174 694 l 174 868 l 87 868 m 434 781 l 434 694 l 608 694 l 608 781 l 434 781 m 434 781 l 434 868 l 347 868 l 347 781 l 434 781 m 608 781 l 694 781 l 694 955 l 608 955 l 608 781 m 174 868 l 347 868 l 347 955 l 174 955 l 174 868 z "}}}
